<svg width="95.25mm" height="76.2mm" viewBox="0 0 95.25 76.2" xmlns="http://www.w3.org/2000/svg"><g id="svgGroup" stroke-linecap="round" fill-rule="evenodd" font-size="9pt" stroke="#000" stroke-width="0.25mm" fill="none" style="stroke:#000;stroke-width:0.25mm;fill:none"><path d="M 0 76.2 L 95.25 76.2 L 95.25 0 L 0 0 L 0 76.2 Z M 22.075 2.525 L 35.075 2.525 A 0.5 0.5 0 0 1 35.575 3.025 L 35.575 16.025 A 0.5 0.5 0 0 1 35.075 16.525 L 22.075 16.525 A 0.5 0.5 0 0 1 21.575 16.025 L 21.575 3.025 A 0.5 0.5 0 0 1 22.075 2.525 Z M 3.025 21.575 L 16.025 21.575 A 0.5 0.5 0 0 1 16.525 22.075 L 16.525 35.075 A 0.5 0.5 0 0 1 16.025 35.575 L 3.025 35.575 A 0.5 0.5 0 0 1 2.525 35.075 L 2.525 22.075 A 0.5 0.5 0 0 1 3.025 21.575 Z M 22.075 21.575 L 35.075 21.575 A 0.5 0.5 0 0 1 35.575 22.075 L 35.575 35.075 A 0.5 0.5 0 0 1 35.075 35.575 L 22.075 35.575 A 0.5 0.5 0 0 1 21.575 35.075 L 21.575 22.075 A 0.5 0.5 0 0 1 22.075 21.575 Z M 41.125 21.575 L 54.125 21.575 A 0.5 0.5 0 0 1 54.625 22.075 L 54.625 35.075 A 0.5 0.5 0 0 1 54.125 35.575 L 41.125 35.575 A 0.5 0.5 0 0 1 40.625 35.075 L 40.625 22.075 A 0.5 0.5 0 0 1 41.125 21.575 Z M 60.175 21.575 L 73.175 21.575 A 0.5 0.5 0 0 1 73.675 22.075 L 73.675 35.075 A 0.5 0.5 0 0 1 73.175 35.575 L 60.175 35.575 A 0.5 0.5 0 0 1 59.675 35.075 L 59.675 22.075 A 0.5 0.5 0 0 1 60.175 21.575 Z M 79.225 21.575 L 92.225 21.575 A 0.5 0.5 0 0 1 92.725 22.075 L 92.725 35.075 A 0.5 0.5 0 0 1 92.225 35.575 L 79.225 35.575 A 0.5 0.5 0 0 1 78.725 35.075 L 78.725 22.075 A 0.5 0.5 0 0 1 79.225 21.575 Z M 22.075 40.625 L 35.075 40.625 A 0.5 0.5 0 0 1 35.575 41.125 L 35.575 54.125 A 0.5 0.5 0 0 1 35.075 54.625 L 22.075 54.625 A 0.5 0.5 0 0 1 21.575 54.125 L 21.575 41.125 A 0.5 0.5 0 0 1 22.075 40.625 Z M 41.125 40.625 L 54.125 40.625 A 0.5 0.5 0 0 1 54.625 41.125 L 54.625 54.125 A 0.5 0.5 0 0 1 54.125 54.625 L 41.125 54.625 A 0.5 0.5 0 0 1 40.625 54.125 L 40.625 41.125 A 0.5 0.5 0 0 1 41.125 40.625 Z M 60.175 40.625 L 73.175 40.625 A 0.5 0.5 0 0 1 73.675 41.125 L 73.675 54.125 A 0.5 0.5 0 0 1 73.175 54.625 L 60.175 54.625 A 0.5 0.5 0 0 1 59.675 54.125 L 59.675 41.125 A 0.5 0.5 0 0 1 60.175 40.625 Z M 79.225 40.625 L 92.225 40.625 A 0.5 0.5 0 0 1 92.725 41.125 L 92.725 54.125 A 0.5 0.5 0 0 1 92.225 54.625 L 79.225 54.625 A 0.5 0.5 0 0 1 78.725 54.125 L 78.725 41.125 A 0.5 0.5 0 0 1 79.225 40.625 Z M 5.406 59.675 L 18.406 59.675 A 0.5 0.5 0 0 1 18.906 60.175 L 18.906 73.175 A 0.5 0.5 0 0 1 18.406 73.675 L 5.406 73.675 A 0.5 0.5 0 0 1 4.906 73.175 L 4.906 60.175 A 0.5 0.5 0 0 1 5.406 59.675 Z M 26.838 59.675 L 39.838 59.675 A 0.5 0.5 0 0 1 40.338 60.175 L 40.338 73.175 A 0.5 0.5 0 0 1 39.838 73.675 L 26.838 73.675 A 0.5 0.5 0 0 1 26.338 73.175 L 26.338 60.175 A 0.5 0.5 0 0 1 26.838 59.675 Z M 62.556 59.675 L 75.556 59.675 A 0.5 0.5 0 0 1 76.056 60.175 L 76.056 73.175 A 0.5 0.5 0 0 1 75.556 73.675 L 62.556 73.675 A 0.5 0.5 0 0 1 62.056 73.175 L 62.056 60.175 A 0.5 0.5 0 0 1 62.556 59.675 Z M 3.025 2.525 L 16.025 2.525 A 0.5 0.5 0 0 1 16.525 3.025 L 16.525 16.025 A 0.5 0.5 0 0 1 16.025 16.525 L 3.025 16.525 A 0.5 0.5 0 0 1 2.525 16.025 L 2.525 3.025 A 0.5 0.5 0 0 1 3.025 2.525 Z M 41.125 2.525 L 54.125 2.525 A 0.5 0.5 0 0 1 54.625 3.025 L 54.625 16.025 A 0.5 0.5 0 0 1 54.125 16.525 L 41.125 16.525 A 0.5 0.5 0 0 1 40.625 16.025 L 40.625 3.025 A 0.5 0.5 0 0 1 41.125 2.525 Z M 60.175 2.525 L 73.175 2.525 A 0.5 0.5 0 0 1 73.675 3.025 L 73.675 16.025 A 0.5 0.5 0 0 1 73.175 16.525 L 60.175 16.525 A 0.5 0.5 0 0 1 59.675 16.025 L 59.675 3.025 A 0.5 0.5 0 0 1 60.175 2.525 Z M 79.225 2.525 L 92.225 2.525 A 0.5 0.5 0 0 1 92.725 3.025 L 92.725 16.025 A 0.5 0.5 0 0 1 92.225 16.525 L 79.225 16.525 A 0.5 0.5 0 0 1 78.725 16.025 L 78.725 3.025 A 0.5 0.5 0 0 1 79.225 2.525 Z M 3.025 40.625 L 16.025 40.625 A 0.5 0.5 0 0 1 16.525 41.125 L 16.525 54.125 A 0.5 0.5 0 0 1 16.025 54.625 L 3.025 54.625 A 0.5 0.5 0 0 1 2.525 54.125 L 2.525 41.125 A 0.5 0.5 0 0 1 3.025 40.625 Z M 54.118 60.675 L 60.118 60.675 A 0.5 0.5 0 0 1 60.618 61.175 L 60.618 75.175 A 0.5 0.5 0 0 1 60.118 75.675 L 54.118 75.675 A 0.5 0.5 0 0 1 53.618 75.175 L 53.618 61.175 A 0.5 0.5 0 0 1 54.118 60.675 Z M 77.994 60.675 L 83.994 60.675 A 0.5 0.5 0 0 1 84.494 61.175 L 84.494 75.175 A 0.5 0.5 0 0 1 83.994 75.675 L 77.994 75.675 A 0.5 0.5 0 0 1 77.494 75.175 L 77.494 61.175 A 0.5 0.5 0 0 1 77.994 60.675 Z" vector-effect="non-scaling-stroke"/></g></svg>